<svg width="123" height="123" viewBox="0 0 123 123" fill="none" xmlns="http://www.w3.org/2000/svg">
<g clip-path="url(#clip0_12_7)">
<path d="M37.2716 98.1532C54.3279 109.453 77.5345 107.59 92.5621 92.5621C101.252 83.8729 105.54 72.4489 105.426 61.0607L120.913 45.5742C126.392 66.0917 121.083 88.8906 104.987 104.987C80.9697 129.004 42.0302 129.004 18.0129 104.987C15.9036 102.878 13.9796 100.654 12.2408 98.3343L32.7674 77.8075H57.617L37.2716 98.1532Z" fill="white"/>
<path d="M18.0129 18.0129C1.91658 34.1093 -3.392 56.9083 2.08719 77.4258L17.5736 61.9394C17.4604 50.5511 21.7485 39.1271 30.4378 30.4378C45.4654 15.4102 68.6721 13.5465 85.7283 24.8467L65.383 45.1925H90.2324L110.759 24.6658C109.02 22.3465 107.096 20.1222 104.987 18.0129C80.9697 -6.00431 42.0303 -6.00431 18.0129 18.0129Z" fill="white"/>
</g>
<defs>
<clipPath id="clip0_12_7">
<rect width="123" height="123" fill="white"/>
</clipPath>
</defs>
</svg>
